<?xml version="1.0" encoding="iso-8859-1"?>

<!DOCTYPE svg PUBLIC "-//W3C//DTD SVG 1.1//EN" "http://www.w3.org/Graphics/SVG/1.1/DTD/svg11.dtd">
<!-- Uploaded to: SVG Repo, www.svgrepo.com, Generator: SVG Repo Mixer Tools -->
<svg height="800px" width="800px" version="1.1" id="_x35_" xmlns="http://www.w3.org/2000/svg" xmlns:xlink="http://www.w3.org/1999/xlink" 
	 viewBox="0 0 512 512"  xml:space="preserve">
<g>
	<g>
		<path style="fill:#FFFFFF;" d="M124.189,251.136c9.186-11.77,14.66-26.58,14.66-42.668c0-17.228-6.275-32.985-16.663-45.12
			c6.489-8.494,10.352-19.103,10.352-30.617c0-27.885-22.606-50.491-50.491-50.491c-27.885,0-50.491,22.606-50.491,50.491
			c0,5.57,0.916,10.927,2.585,15.939C13.706,160.753,0,183.009,0,208.468c0,36.268,27.813,66.036,63.276,69.149
			c-0.103,1.132-0.163,2.272-0.163,3.431c0,20.913,16.954,37.867,37.87,37.867c20.913,0,37.867-16.954,37.867-37.867
			C138.85,268.881,133.106,258.065,124.189,251.136z"/>
		<path style="fill:#F6F5F5;" d="M448.745,277.616c0.062,1.115,0.124,2.292,0.124,3.408c0,20.94-16.913,37.915-37.854,37.915
			c-3.098,0-6.072-0.371-8.921-1.115c-15.179-3.655-26.764-16.418-28.623-32.216c-0.186-1.487-0.31-3.036-0.31-4.585
			c0-1.611,0.124-3.222,0.31-4.771c0.062-0.372,0.062-0.744,0.124-1.116c1.549-9.727,6.815-18.215,14.25-23.976
			c-6.258-7.93-10.718-17.285-13.011-27.445c-0.805-3.47-1.301-7.125-1.549-10.78c-0.062-1.487-0.124-2.974-0.124-4.461
			c0-12.081,3.098-23.48,8.549-33.331h0.062c0-0.062,0-0.062,0-0.124c1.301-2.354,2.726-4.646,4.275-6.815
			c1.177-1.672,2.416-3.283,3.779-4.832c-5.886-7.744-9.603-17.223-10.223-27.508c-0.062-1.053-0.124-2.106-0.124-3.16
			c0-3.16,0.31-6.257,0.867-9.231c3.407-18.648,17.099-33.641,34.942-39.031c4.647-1.487,9.541-2.231,14.683-2.231
			c8.054,0,15.674,1.859,22.427,5.267c9.851,4.894,17.905,12.948,22.799,22.799c3.407,6.753,5.266,14.374,5.266,22.427
			c0,5.576-0.929,10.966-2.602,15.984C498.308,160.771,512,183.012,512,208.475C512,244.718,484.183,274.519,448.745,277.616z"/>
	</g>
	<path style="fill:#EBD2B5;" d="M448.497,192.492c0,6.009-0.248,11.957-0.805,17.843c-3.283,35.376-16.108,68.025-35.871,95.223
		c-1.859,2.54-3.78,5.081-5.824,7.558c-1.239,1.611-2.54,3.16-3.903,4.709c-5.452,6.381-11.4,12.453-17.657,18.029
		c-0.929,0.805-1.797,1.61-2.726,2.416c-1.921,1.673-3.903,3.284-5.885,4.895c-2.107,1.672-4.213,3.283-6.382,4.832
		c-2.664,1.982-5.328,3.841-8.116,5.638c-1.859,1.177-3.717,2.354-5.576,3.531c-0.93,0.557-1.921,1.116-2.912,1.673
		c-1.734,0.991-3.407,1.982-5.204,2.912c-8.302,4.585-17.037,8.487-26.082,11.709c-2.292,0.867-4.647,1.673-7.001,2.416
		c-2.168,0.681-4.337,1.363-6.567,1.982c-0.93,0.248-1.858,0.558-2.85,0.744c-2.54,0.681-5.204,1.363-7.806,1.92
		c-0.619,0.124-1.239,0.309-1.921,0.371c-1.425,0.372-2.85,0.62-4.275,0.868c-1.301,0.247-2.664,0.495-4.027,0.681
		c-1.611,0.31-3.284,0.558-4.956,0.744c-1.363,0.186-2.726,0.371-4.089,0.557c-1.425,0.124-2.912,0.309-4.398,0.433
		c-1.487,0.124-3.036,0.248-4.647,0.372c-4.275,0.31-8.612,0.434-13.011,0.434c-6.071,0-12.143-0.248-18.09-0.868
		c-51.112-4.709-96.4-29.428-127.997-66.29c-28.932-33.641-46.403-77.443-46.403-125.333c0-1.301,0-2.602,0.062-3.841
		c0.743-38.598,12.825-74.407,33.145-104.206c33.889-49.997,90.763-83.143,155.443-84.382C253.404,0,254.705,0,256.006,0
		c66.229,0,124.714,33.455,159.284,84.444C436.23,115.235,448.497,152.408,448.497,192.492z"/>
	<path style="fill:#DABE9F;" d="M411.813,305.568c-34.997,48.133-91.751,79.42-155.804,79.42c-6.099,0-12.126-0.284-18.074-0.844
		l-104.873-104.87l249.3-3.157L411.813,305.568z"/>
	<path style="fill:#DABE9F;" d="M447.685,210.329c-3.25,35.391-16.079,68.013-35.872,95.239
		c-27.248,37.482-67.697,64.747-114.513,74.979L96.835,180.08l4.948-4.945h310.718L447.685,210.329z"/>
	<g>
		<circle style="fill:#E7F4F5;" cx="172.873" cy="171.353" r="53.84"/>
		<circle style="fill:#E7F4F5;" cx="339.138" cy="171.353" r="53.841"/>
		<g>
			<path style="fill:#605853;" d="M241.199,167.276c-0.495-7.496-2.23-14.682-5.018-21.312
				c-4.956-11.771-13.258-21.684-23.666-28.747c-10.408-7.001-22.985-11.151-36.491-11.151c-8.983,0-17.595,1.858-25.401,5.142
				c-7.063,2.974-13.444,7.125-18.958,12.267c-3.717,3.407-7.001,7.249-9.788,11.399c-6.257,9.355-10.285,20.445-11.028,32.402
				c-0.062,1.363-0.124,2.726-0.124,4.089c0,1.24,0.062,2.54,0.124,3.779c0.124,2.664,0.434,5.329,0.93,7.868
				c0.867,4.771,2.23,9.417,4.089,13.754c0.619,1.487,1.301,2.912,1.983,4.337c4.647,8.983,11.276,16.727,19.33,22.613
				c0.743,0.619,1.549,1.177,2.354,1.735c2.106,1.425,4.213,2.726,6.505,3.84c8.983,4.709,19.206,7.373,29.986,7.373
				c8.983,0,17.595-1.859,25.401-5.142c11.771-5.019,21.684-13.259,28.747-23.667c4.956-7.31,8.426-15.799,10.099-24.844
				c0.495-2.54,0.805-5.204,0.929-7.868c0.062-1.239,0.124-2.54,0.124-3.779C241.323,170.002,241.261,168.639,241.199,167.276z
				 M218.214,175.144c-0.372,4.461-1.425,8.736-3.098,12.701c-3.222,7.62-8.612,14.126-15.365,18.648
				c-3.407,2.292-7.124,4.15-11.09,5.328c-3.965,1.24-8.24,1.92-12.639,1.92c-5.886,0-11.4-1.177-16.48-3.284
				c-7.62-3.221-14.125-8.611-18.71-15.426c-2.231-3.345-4.089-7.062-5.328-11.089c-0.867-2.788-1.425-5.762-1.673-8.798
				c-0.124-1.239-0.186-2.478-0.186-3.779c0-5.885,1.177-11.461,3.284-16.542c3.221-7.558,8.611-14.064,15.427-18.648
				c3.345-2.292,7.063-4.088,11.028-5.327c4.027-1.24,8.24-1.921,12.639-1.921c5.885,0,11.461,1.239,16.48,3.346
				c7.62,3.222,14.126,8.611,18.71,15.364c2.292,3.408,4.089,7.124,5.328,11.09c1.239,3.964,1.858,8.24,1.858,12.638
				C218.4,172.667,218.338,173.905,218.214,175.144z"/>
			<path style="fill:#605853;" d="M105.882,183.025c-4.356,0-7.89-3.534-7.89-7.89c0-4.356,3.534-7.888,7.89-7.888h16.495
				c4.359,0,7.89,3.532,7.89,7.888c0,4.356-3.532,7.89-7.89,7.89H105.882L105.882,183.025z"/>
			<path style="fill:#605853;" d="M401.164,167.276c-0.743-11.957-4.77-23.047-11.028-32.402c-2.788-4.15-6.072-7.992-9.789-11.399
				c-5.514-5.142-11.895-9.293-18.958-12.267c-7.806-3.284-16.418-5.142-25.401-5.142c-13.506,0-26.083,4.15-36.491,11.151
				c-10.408,7.063-18.71,16.975-23.666,28.747c-2.788,6.63-4.585,13.878-5.018,21.436c-0.062,1.301-0.124,2.664-0.124,3.965
				c0,1.24,0.062,2.54,0.124,3.779c0.124,2.602,0.434,5.143,0.929,7.62c1.611,9.169,5.142,17.719,10.099,25.092
				c7.063,10.408,16.976,18.648,28.747,23.667c7.806,3.283,16.418,5.142,25.401,5.142c13.506,0,26.082-4.151,36.491-11.213
				c0.805-0.558,1.611-1.115,2.354-1.735c9.293-6.816,16.728-16.109,21.312-26.951c1.858-4.337,3.222-8.983,4.089-13.754
				c0.495-2.54,0.805-5.204,0.929-7.868c0.062-1.239,0.124-2.54,0.124-3.779C401.288,170.002,401.226,168.639,401.164,167.276z
				 M323.35,211.821c-3.965-1.177-7.682-3.036-11.09-5.328c-6.753-4.523-12.143-11.028-15.365-18.648
				c-1.673-3.965-2.726-8.24-3.098-12.701c-0.124-1.239-0.186-2.478-0.186-3.779c0-4.398,0.619-8.674,1.859-12.638
				c1.239-3.966,3.036-7.682,5.328-11.09c4.585-6.753,11.09-12.143,18.71-15.364c5.018-2.107,10.594-3.346,16.48-3.346
				c4.398,0,8.611,0.681,12.638,1.921c3.965,1.239,7.682,3.036,11.028,5.327c6.815,4.585,12.205,11.09,15.427,18.648
				c2.106,5.081,3.283,10.657,3.283,16.542c0,1.301-0.062,2.54-0.186,3.779c-0.248,3.036-0.805,6.009-1.673,8.798
				c-1.239,4.027-3.098,7.744-5.328,11.089c-4.585,6.815-11.09,12.205-18.71,15.426c-5.08,2.107-10.594,3.284-16.48,3.284
				C331.59,213.741,327.315,213.061,323.35,211.821z"/>
			<path style="fill:#605853;" d="M406.13,183.025h-16.497c-4.356,0-7.888-3.534-7.888-7.89c0-4.356,3.531-7.888,7.888-7.888h16.497
				c4.356,0,7.89,3.532,7.89,7.888C414.02,179.491,410.486,183.025,406.13,183.025L406.13,183.025z"/>
			<path style="fill:#605853;" d="M237.207,183.025h32.689c4.359,0,7.89-3.534,7.89-7.89c0-4.356-3.532-7.888-7.89-7.888h-32.689
				c-4.359,0-7.89,3.532-7.89,7.888C229.317,179.491,232.848,183.025,237.207,183.025L237.207,183.025z"/>
		</g>
	</g>
	<path style="fill:#FFFFFF;" d="M338.101,259.118c-9.814-14.201-27.255-29.585-47.969-28.4
		c7.631,17.749-10.867,44.414-34.126,41.454c-23.258,2.96-41.757-23.705-34.124-41.454c-20.714-1.185-38.156,14.198-47.969,28.4
		c-14.824,21.45-42.577,15.285-42.577,15.285s14.617,34.848,63.315,38.793c34.557,2.798,61.355-28.4,61.355-28.4
		s26.801,31.198,61.358,28.4c48.698-3.945,63.315-38.793,63.315-38.793S352.924,280.568,338.101,259.118z"/>
	<circle style="fill:#EBD2B5;" cx="241.935" cy="236.671" r="18.934"/>
</g>
</svg>